<svg width="28" height="34" viewBox="0 0 28 34" fill="none" xmlns="http://www.w3.org/2000/svg">
<path d="M5.3642 13.1113V9.53393C5.3642 7.27059 6.2633 5.09996 7.86373 3.49953C9.46415 1.89911 11.6348 1 13.8981 1C16.1615 1 18.3321 1.89911 19.9325 3.49953C21.533 5.09996 22.4321 7.27059 22.4321 9.53393V13.1113M2.55811 13.1113H25.2529C25.6661 13.1117 26.0622 13.2762 26.3542 13.5685C26.6462 13.8608 26.8102 14.257 26.8102 14.6702V31.4411C26.8102 31.8544 26.6461 32.2508 26.3539 32.5431C26.0617 32.8354 25.6654 32.9998 25.2521 33H2.55893C2.14548 33 1.74896 32.8358 1.4566 32.5434C1.16424 32.251 1 31.8545 1 31.4411V14.6702C1 14.2568 1.16424 13.8602 1.4566 13.5679C1.74896 13.2755 2.14548 13.1113 2.55893 13.1113H2.55811Z" stroke="#1F8BA7" stroke-width="2" stroke-linecap="round" stroke-linejoin="round"/>
<path d="M13.8982 26.3654C15.7262 26.3654 17.2081 24.8836 17.2081 23.0556C17.2081 21.2276 15.7262 19.7457 13.8982 19.7457C12.0703 19.7457 10.5884 21.2276 10.5884 23.0556C10.5884 24.8836 12.0703 26.3654 13.8982 26.3654Z" stroke="#1F8BA7" stroke-width="2" stroke-linecap="round" stroke-linejoin="round"/>
</svg>
