<svg width="11" height="11" viewBox="0 0 11 11" fill="none" xmlns="http://www.w3.org/2000/svg">
<path d="M5.4997 0.999662C4.8389 0.984269 4.18185 1.10307 3.56828 1.34889C2.95471 1.59471 2.39739 1.96243 1.93 2.42981C1.46262 2.89719 1.0949 3.45452 0.849087 4.06808C0.603271 4.68165 0.484467 5.3387 0.499861 5.9995C0.484467 6.6603 0.603271 7.31735 0.849087 7.93092C1.0949 8.54448 1.46262 9.10181 1.93 9.56919C2.39739 10.0366 2.95471 10.4043 3.56828 10.6501C4.18185 10.8959 4.8389 11.0147 5.4997 10.9993C6.1605 11.0147 6.81755 10.8959 7.43112 10.6501C8.04468 10.4043 8.60201 10.0366 9.06939 9.56919C9.53677 9.10181 9.90449 8.54448 10.1503 7.93092C10.3961 7.31735 10.5149 6.6603 10.4995 5.9995C10.5149 5.3387 10.3961 4.68165 10.1503 4.06808C9.90449 3.45452 9.53677 2.89719 9.06939 2.42981C8.60201 1.96243 8.04468 1.59471 7.43112 1.34889C6.81755 1.10307 6.1605 0.984269 5.4997 0.999662ZM5.4997 8.49942C5.16715 8.5155 4.83491 8.46184 4.52433 8.34189C4.21374 8.22195 3.93168 8.03837 3.69625 7.80294C3.46083 7.56752 3.27725 7.28546 3.1573 6.97487C3.03736 6.66429 2.9837 6.33205 2.99978 5.9995C2.9837 5.66695 3.03736 5.33471 3.1573 5.02413C3.27725 4.71354 3.46083 4.43148 3.69625 4.19606C3.93168 3.96063 4.21374 3.77705 4.52433 3.65711C4.83491 3.53716 5.16715 3.4835 5.4997 3.49958C5.83225 3.4835 6.16449 3.53716 6.47507 3.65711C6.78566 3.77705 7.06772 3.96063 7.30314 4.19606C7.53857 4.43148 7.72215 4.71354 7.84209 5.02413C7.96204 5.33471 8.01569 5.66695 7.99962 5.9995C8.01569 6.33205 7.96204 6.66429 7.84209 6.97487C7.72215 7.28546 7.53857 7.56752 7.30314 7.80294C7.06772 8.03837 6.78566 8.22195 6.47507 8.34189C6.16449 8.46184 5.83225 8.5155 5.4997 8.49942Z" fill="#1F8BA7"/>
</svg>
